<?xml version="1.0" encoding="UTF-8"?><svg id="Layer_1" xmlns="http://www.w3.org/2000/svg" viewBox="0 0 1839 361"><g><path d="M28.5,321.78H114.01c5,0,7.5,2.5,7.5,7.5v13c0,5-2.5,7.5-7.5,7.5H5.01c-5.01,0-7.51-2.5-7.51-7.5V-4.75C-2.5-9.74,0-12.24,5.01-12.24h15.99c5.01,0,7.5,2.5,7.5,7.5V321.78Z"/><path d="M283.04,56.76v224.02c0,45.51-11,71.51-69.5,71.51s-69.5-26-69.5-71.51V56.76c0-45,11-71.5,69.5-71.5s69.5,26.5,69.5,71.5Zm-108.01,0v224.02c0,27.5,6,43.5,38.51,43.5s38.5-16,38.5-43.5V56.76c0-27.5-6-43.5-38.5-43.5s-38.51,16-38.51,43.5Z"/><path d="M462.06,118.27c0,5-2.5,7.5-7.5,7.5h-16c-5,0-7.5-2.5-7.5-7.5V56.76c0-27.5-6-43.5-38.5-43.5s-38.51,16-38.51,43.5v224.02c0,27.5,6,43.5,38.51,43.5s38.5-16,38.5-43.5v-61.5c0-5,2.5-7.5,7.5-7.5h16c5,0,7.5,2.5,7.5,7.5v61.5c0,45.51-11,71.51-69.5,71.51s-69.51-26-69.51-71.51V56.76c0-45,11-71.5,69.51-71.5s69.5,26.5,69.5,71.5v61.51Z"/><path d="M615.09,342.28l-11.5-74.51h-73l-11.51,74.51c-.5,4-2.5,7.5-7.5,7.5h-18c-4.5,0-6.5-3.5-6.01-8L541.08-4.24c.51-5,3-8,8.51-8h35c5.5,0,8,3,8.5,8l53.5,346.02c.5,5-2,8-6.01,8h-18c-4.5,0-7-3-7.5-7.5Zm-80.5-102.51h64.51l-20.51-136.01-10.5-85h-2l-10.5,85-21,136.01Z"/><path d="M703.12,321.78h85.51c5,0,7.5,2.5,7.5,7.5v13c0,5-2.5,7.5-7.5,7.5h-109.01c-5,0-7.5-2.5-7.5-7.5V-4.75c0-5,2.5-7.5,7.5-7.5h16c5,0,7.5,2.5,7.5,7.5V321.78Z"/><path d="M877.15,131.26l50,56c18,20,30.51,39,30.51,93.51,0,45.51-11.01,71.51-69.51,71.51s-69.5-26-69.5-71.51v-51.5c0-5,2.5-7.5,7.51-7.5h15.99c5.01,0,7.5,2.5,7.5,7.5v51.5c0,27.5,6.01,43.5,38.51,43.5s38.51-16,38.51-43.5c0-34-3.5-47.5-27.51-74.5l-50-56c-18-19.5-30.5-39-30.5-93.51,0-45,11.01-71.5,69.5-71.5s69.51,26.5,69.51,71.5v51.5c0,5-2.5,7.5-7.51,7.5h-16c-4.99,0-7.5-2.5-7.5-7.5V56.76c0-27.5-6.01-43.5-38.51-43.5s-38.51,16-38.51,43.5c0,35.01,4.01,48,27.51,74.51Z"/></g><g><path d="M1218.33,64.76v208.01c0,54.51-34.51,79.51-99.01,79.51s-99.01-25-99.01-79.51V64.76c0-54.5,34.51-79.5,99.01-79.5s99.01,25,99.01,79.5Zm-124.01,0v208.01c0,13.5,8.49,23.5,25,23.5s25-10,25-23.5V64.76c0-13.5-8.5-23.5-25-23.5s-25,10-25,23.5Z"/><path d="M1392.37,8.26c0-13,7.51-20.5,20.5-20.5h28c13.01,0,20.51,7.5,20.51,20.5V329.28c0,13-7.5,20.5-20.51,20.5h-33.5c-12.51,0-17.5-6.5-20.51-15l-37.5-108.01-24.5-87.01-5,1,7.5,89.51v99.01c0,13-7.5,20.5-20.5,20.5h-28c-13.01,0-20.51-7.5-20.51-20.5V8.26c0-13,7.5-20.5,20.51-20.5h33.5c12.5,0,17.5,6.5,20.51,15l37.5,108.01,24.5,87.01,5.01-1-7.51-89.51V8.26Z"/><path d="M1575.41,293.78h72.51c13,0,20.5,7.5,20.5,20.5v15c0,13-7.5,20.5-20.5,20.5h-126.01c-13,0-20.51-7.5-20.51-20.5V8.26c0-13,7.51-20.5,20.51-20.5h33.01c12.99,0,20.5,7.5,20.5,20.5V293.78Z"/><path d="M1686.93-12.24c8,0,17,3.5,20.01,14l20,79.01,12,71.51h4.99l12.01-71.51L1775.94,1.75c3-10.5,12.01-14,20.01-14h30c18.51,0,23.51,15,19.01,29l-66.51,208.52v104.01c0,13-7.5,20.5-20.51,20.5h-33c-13.01,0-20.51-7.5-20.51-20.5v-104.01l-66.5-208.52c-4.5-14,.5-29,19-29h30Z"/></g></svg>