<?xml version="1.0" encoding="UTF-8"?><svg id="Layer_1" xmlns="http://www.w3.org/2000/svg" viewBox="0 0 410 140"><defs><style>.cls-1{fill:#ff4a11;}.cls-2{fill:#ffad49;}</style></defs><path class="cls-1" d="M56.65,31.43c-13.66,0-24.73,11.07-24.73,24.73v52.42H353.35c13.66,0,24.73-11.07,24.73-24.73V31.43H56.65Z"/><g><path class="cls-2" d="M56.65,31.43H378.08v-4.95c0-13.66-11.07-24.73-24.73-24.73H26.98C13.32,1.76,2.25,12.83,2.25,26.48v57.36c0,13.66,11.07,24.73,24.73,24.73h4.95V56.15c0-13.66,11.07-24.73,24.73-24.73Z"/><path d="M383.02,31.43h-4.95v52.42c0,13.66-11.07,24.73-24.73,24.73H31.92v4.95c0,13.66,11.07,24.73,24.73,24.73H383.02c13.66,0,24.73-11.07,24.73-24.73V56.15c0-13.66-11.07-24.73-24.73-24.73Z"/></g></svg>