<?xml version="1.0" encoding="UTF-8"?><svg id="Layer_1" xmlns="http://www.w3.org/2000/svg" viewBox="0 0 1920 1080"><defs><style>.cls-1{fill:#ffad49;}.cls-2{fill:#fff;opacity:.75;}</style></defs><g><g><g><path d="M1148.75-16.25l-103.33,103.33c-2.7,2.7-6.22,4.02-9.74,4.02s-7.05-1.32-9.74-4.02l-39.8-39.8-39.8,39.8c-5.39,5.34-14.09,5.34-19.49,0-5.34-5.39-5.34-14.09,0-19.49l49.54-49.54c5.39-5.34,14.09-5.34,19.49,0l39.8,39.8,74.1-74.1h38.98Z"/><path d="M976.4,235.7c2.69,2.69,6.21,4.03,9.73,4.03s7.05-1.34,9.73-4.03l39.81-39.81,39.81,39.81c2.69,2.69,6.21,4.03,9.73,4.03s7.05-1.34,9.73-4.03c5.38-5.38,5.38-14.09,0-19.46l-39.81-39.81,39.81-39.81c5.38-5.38,5.38-14.09,0-19.46-5.37-5.38-14.09-5.38-19.46,0l-39.81,39.81-39.81-39.81c-5.37-5.38-14.09-5.38-19.46,0-5.38,5.38-5.38,14.09,0,19.46l39.81,39.81-39.81,39.81c-5.38,5.38-5.38,14.09,0,19.46Z"/><path d="M976.4,334.79c2.69,2.69,6.21,4.03,9.73,4.03s7.05-1.34,9.73-4.03l49.54-49.55c5.38-5.38,5.38-14.09,0-19.46-5.37-5.38-14.09-5.38-19.46,0l-49.55,49.55c-5.38,5.38-5.38,14.09,0,19.46Z"/><path class="cls-1" d="M1194.05,117.14c5.34,5.39,5.34,14.09,0,19.49l-49.54,49.55c-2.7,2.7-6.22,4.02-9.74,4.02s-7.05-1.32-9.74-4.02c-5.34-5.39-5.34-14.09,0-19.49l39.8-39.8-39.8-39.8c-5.34-5.39-5.34-14.09,0-19.49l83.84-83.84h38.98l-93.58,93.59,39.8,39.8Z"/><path d="M1243.58,87.07l49.54-49.54c5.38-5.38,5.38-14.09,0-19.46-5.38-5.38-14.09-5.38-19.46,0l-49.55,49.55c-5.38,5.38-5.38,14.09,0,19.46,2.69,2.69,6.21,4.03,9.73,4.03s7.04-1.34,9.73-4.03Z"/><path class="cls-1" d="M1372.76,235.7c2.69,2.69,6.21,4.03,9.73,4.03s7.04-1.34,9.73-4.03l39.81-39.81,39.81,39.81c2.69,2.69,6.21,4.03,9.73,4.03s7.04-1.34,9.73-4.03c5.38-5.38,5.38-14.09,0-19.46l-39.81-39.81,39.81-39.81c5.38-5.38,5.38-14.09,0-19.46-5.38-5.38-14.09-5.38-19.46,0l-39.81,39.81-39.81-39.81c-5.38-5.38-14.09-5.38-19.46,0-5.38,5.38-5.38,14.09,0,19.46l39.81,39.81-39.81,39.81c-5.38,5.38-5.38,14.09,0,19.46Z"/><path class="cls-1" d="M976.4,731.15c2.69,2.69,6.21,4.03,9.73,4.03s7.05-1.34,9.73-4.03l39.81-39.81,39.81,39.81c2.69,2.69,6.21,4.03,9.73,4.03s7.05-1.34,9.73-4.03c5.38-5.38,5.38-14.09,0-19.46l-39.81-39.81,39.81-39.81c5.38-5.38,5.38-14.09,0-19.46-5.37-5.38-14.09-5.38-19.46,0l-39.81,39.81-39.81-39.81c-5.37-5.38-14.09-5.38-19.46,0-5.38,5.38-5.38,14.09,0,19.46l39.81,39.81-39.81,39.81c-5.38,5.38-5.38,14.09,0,19.46Z"/><path class="cls-1" d="M877.31,532.97c2.69,2.69,6.21,4.03,9.73,4.03s7.05-1.34,9.73-4.03l89.36-89.36,39.81,39.81c2.69,2.69,6.21,4.03,9.73,4.03s7.05-1.34,9.73-4.03c5.38-5.38,5.38-14.09,0-19.46l-39.81-39.81,89.36-89.36c5.38-5.38,5.38-14.09,0-19.46-5.37-5.38-14.09-5.38-19.46,0l-198.18,198.18c-5.38,5.38-5.38,14.09,0,19.46Z"/><path d="M877.31,632.06c2.69,2.69,6.21,4.03,9.73,4.03s7.05-1.34,9.73-4.03l89.36-89.36,39.81,39.81c5.37,5.38,14.09,5.38,19.46,0l99.09-99.09c5.38-5.38,5.38-14.09,0-19.46l-39.81-39.81,39.81-39.81c5.38-5.38,5.38-14.09,0-19.46-5.37-5.38-14.09-5.38-19.46,0l-49.55,49.55c-5.38,5.38-5.38,14.09,0,19.46l39.81,39.81-79.63,79.63-39.81-39.81c-5.37-5.38-14.09-5.38-19.46,0l-99.09,99.09c-5.38,5.38-5.38,14.09,0,19.46Z"/><path d="M1125.03,265.78c-5.38,5.38-5.38,14.09,0,19.46l49.55,49.55c2.69,2.69,6.21,4.03,9.73,4.03s7.04-1.34,9.73-4.03c5.38-5.38,5.38-14.09,0-19.46l-49.54-49.55c-5.37-5.38-14.09-5.38-19.46,0Z"/><path d="M1174.58,235.7c5.38,5.38,14.09,5.38,19.46,0l89.36-89.36,30.08,30.08-89.36,89.36c-5.38,5.38-5.38,14.09,0,19.46,2.69,2.69,6.21,4.03,9.73,4.03s7.04-1.34,9.73-4.03l99.09-99.09c5.38-5.38,5.38-14.09,0-19.46l-49.54-49.55c-5.38-5.38-14.09-5.38-19.46,0l-99.09,99.09c-5.38,5.38-5.38,14.09,0,19.46Z"/><path d="M1342.67,87.07l39.81-39.81,39.81,39.81c2.69,2.69,6.21,4.03,9.73,4.03s7.04-1.34,9.73-4.03c5.38-5.38,5.38-14.09,0-19.46l-49.54-49.55c-5.38-5.38-14.09-5.38-19.46,0l-49.55,49.55c-5.38,5.38-5.38,14.09,0,19.46,5.38,5.38,14.09,5.38,19.46,0Z"/><path d="M1545.11-16.25l-53.78,53.78c-2.7,2.7-6.22,4.02-9.74,4.02s-7.05-1.32-9.74-4.02c-5.34-5.39-5.34-14.09,0-19.49l34.3-34.3h38.98Z"/><path d="M1531.12,91.1c3.52,0,7.04-1.34,9.73-4.03l49.54-49.54c5.38-5.38,5.38-14.09,0-19.46-5.38-5.38-14.09-5.38-19.46,0l-49.55,49.55c-5.38,5.38-5.38,14.09,0,19.46,2.69,2.69,6.21,4.03,9.73,4.03Z"/><path d="M1243.58,364.87c-5.38-5.38-14.09-5.38-19.46,0l-49.55,49.55c-5.38,5.38-5.38,14.09,0,19.46,5.38,5.38,14.09,5.38,19.46,0l39.81-39.81,39.81,39.81c2.69,2.69,6.21,4.03,9.73,4.03s7.04-1.34,9.73-4.03l148.63-148.64c5.38-5.38,5.38-14.09,0-19.46-5.38-5.38-14.09-5.38-19.46,0l-138.9,138.9-39.81-39.81Z"/><path d="M1125.03,681.61c2.69,2.69,6.21,4.03,9.73,4.03s7.05-1.34,9.73-4.03l148.63-148.63c5.38-5.38,5.38-14.09,0-19.46l-49.54-49.55c-5.38-5.38-14.09-5.38-19.46,0l-99.09,99.09c-5.38,5.38-5.38,14.09,0,19.46,5.37,5.38,14.09,5.38,19.46,0l89.36-89.36,30.08,30.08-138.9,138.9c-5.38,5.38-5.38,14.09,0,19.46Z"/><path d="M1392.22,414.42c-5.38-5.38-14.09-5.38-19.46,0l-49.55,49.55c-5.38,5.38-5.38,14.09,0,19.46l49.55,49.54c2.69,2.69,6.21,4.03,9.73,4.03s7.04-1.34,9.73-4.03c5.38-5.38,5.38-14.09,0-19.46l-39.81-39.81,39.81-39.81c5.38-5.38,5.38-14.09,0-19.46Z"/><path d="M1521.39,186.16l39.81,39.81-138.9,138.9c-5.38,5.38-5.38,14.09,0,19.46,2.69,2.69,6.21,4.03,9.73,4.03s7.04-1.34,9.73-4.03l89.36-89.36,39.81,39.81c2.69,2.69,6.21,4.03,9.73,4.03s7.04-1.34,9.73-4.03c5.38-5.38,5.38-14.09,0-19.46l-39.81-39.81,39.81-39.81c5.38-5.38,5.38-14.09,0-19.46l-39.81-39.81,89.36-89.36c5.38-5.38,5.38-14.09,0-19.46-5.38-5.38-14.09-5.38-19.46,0l-99.09,99.09c-5.38,5.38-5.38,14.09,0,19.46Z"/><path d="M1293.13,334.79l49.54-49.55c5.38-5.38,5.38-14.09,0-19.46-5.38-5.38-14.09-5.38-19.46,0l-49.54,49.55c-5.38,5.38-5.38,14.09,0,19.46,2.69,2.69,6.21,4.03,9.73,4.03s7.04-1.34,9.73-4.03Z"/><path d="M1233.85,685.64c3.52,0,7.04-1.34,9.73-4.03l89.36-89.36,39.81,39.81c5.38,5.38,14.09,5.38,19.46,0,5.38-5.38,5.38-14.09,0-19.46l-49.54-49.55c-5.38-5.38-14.09-5.38-19.46,0l-99.09,99.09c-5.38,5.38-5.38,14.09,0,19.46,2.69,2.69,6.21,4.03,9.73,4.03Z"/><path d="M1531.12,586.55c3.52,0,7.04-1.34,9.73-4.03,5.38-5.38,5.38-14.09,0-19.46l-39.81-39.81,39.81-39.81c5.38-5.38,5.38-14.09,0-19.46-5.38-5.38-14.09-5.38-19.46,0l-39.81,39.81-39.81-39.81c-5.38-5.38-14.09-5.38-19.46,0-5.38,5.38-5.38,14.09,0,19.46l39.81,39.81-39.81,39.81c-5.38,5.38-5.38,14.09,0,19.46,2.69,2.69,6.21,4.03,9.73,4.03s7.04-1.34,9.73-4.03l39.81-39.81,39.81,39.81c2.69,2.69,6.21,4.03,9.73,4.03Z"/><path class="cls-1" d="M1540.85,364.87c-5.38-5.38-14.09-5.38-19.46,0l-49.54,49.55c-5.38,5.38-5.38,14.09,0,19.46,5.38,5.38,14.09,5.38,19.46,0l39.81-39.81,39.81,39.81c2.69,2.69,6.21,4.03,9.73,4.03s7.04-1.34,9.73-4.03l99.09-99.09c5.38-5.38,5.38-14.09,0-19.46l-49.54-49.55c-5.38-5.38-14.09-5.38-19.46,0-5.38,5.38-5.38,14.09,0,19.46l39.81,39.81-79.63,79.63-39.81-39.81Z"/><path d="M1689.49,136.61l39.81-39.81,30.08,30.08-79.63,79.63-39.81-39.81c-5.38-5.38-14.09-5.38-19.46,0-5.38,5.38-5.38,14.09,0,19.46l49.55,49.55c2.69,2.69,6.21,4.03,9.73,4.03s7.04-1.34,9.73-4.03l99.09-99.09c5.38-5.38,5.38-14.09,0-19.46l-49.54-49.55c-5.38-5.38-14.09-5.38-19.46,0l-49.54,49.55c-5.38,5.38-5.38,14.09,0,19.46,5.38,5.38,14.09,5.38,19.46,0Z"/><path d="M1842.38-16.25l-53.78,53.78c-2.7,2.7-6.22,4.02-9.74,4.02s-7.05-1.32-9.74-4.02l-39.8-39.8-39.8,39.8c-5.39,5.34-14.09,5.34-19.49,0-5.34-5.39-5.34-14.09,0-19.49l34.3-34.3h49.99l24.55,24.55,24.55-24.55h38.98Z"/><path d="M995.87,1039.44l-45.31,45.31h-38.98l64.79-64.79c5.39-5.34,14.09-5.34,19.49,0,5.34,5.39,5.34,14.09,0,19.49Z"/><path d="M1194.05,1039.44l-45.31,45.31h-38.98l64.79-64.79c5.39-5.34,14.09-5.34,19.49,0,5.34,5.39,5.34,14.09,0,19.49Z"/><path d="M1590.41,1039.44l-45.31,45.31h-38.98l11.01-11.01-35.56-35.56-39.8,39.8c-5.39,5.34-14.09,5.34-19.49,0-5.34-5.39-5.34-14.09,0-19.49l49.54-49.54c5.39-5.34,14.09-5.34,19.49,0l45.31,45.31,34.3-34.3c5.39-5.34,14.09-5.34,19.49,0,5.34,5.39,5.34,14.09,0,19.49Z"/><path d="M1739.05,1069.5l15.25,15.25h-49.99l15.25-15.25c5.39-5.34,14.09-5.34,19.49,0Z"/><path d="M1887.68,1039.44l-45.31,45.31h-38.98l64.79-64.79c5.39-5.34,14.09-5.34,19.49,0,5.34,5.39,5.34,14.09,0,19.49Z"/><path d="M926.85,761.23l-49.55,49.54c-5.38,5.38-5.38,14.09,0,19.46,5.37,5.38,14.09,5.38,19.46,0l39.81-39.81,79.63,79.63-89.36,89.36c-5.38,5.38-5.38,14.09,0,19.46,2.69,2.69,6.21,4.03,9.73,4.03s7.05-1.34,9.73-4.03l99.09-99.09c5.38-5.38,5.38-14.09,0-19.46l-99.09-99.09c-5.37-5.38-14.09-5.38-19.46,0Z"/><polygon points="1961.72 1025.52 1961.72 1064.49 1941.47 1084.75 1902.49 1084.75 1961.72 1025.52"/><path d="M1940.09-16.25c-.66,1.54-1.6,2.97-2.86,4.24l-99.09,99.09c-2.7,2.7-6.22,4.02-9.74,4.02s-7.05-1.32-9.74-4.02c-5.34-5.39-5.34-14.09,0-19.49l83.84-83.84h37.6Z"/><path d="M1342.67,761.23c-5.38-5.38-14.09-5.38-19.46,0l-89.36,89.36-39.81-39.81c-5.38-5.38-14.09-5.38-19.46,0l-99.09,99.09c-5.38,5.38-5.38,14.09,0,19.46l39.81,39.81-30.08,30.08-39.81-39.81c-5.37-5.38-14.09-5.38-19.46,0-5.38,5.38-5.38,14.09,0,19.46l49.54,49.55c2.69,2.69,6.21,4.03,9.73,4.03s7.05-1.34,9.73-4.03l49.54-49.55c5.38-5.38,5.38-14.09,0-19.46l-39.81-39.81,79.63-79.63,39.81,39.81c5.38,5.38,14.09,5.38,19.46,0l99.09-99.09c5.38-5.38,5.38-14.09,0-19.46Z"/><path d="M1233.85,949.68l-39.81-39.81c-5.38-5.38-14.09-5.38-19.46,0-5.38,5.38-5.38,14.09,0,19.46l49.55,49.54c5.38,5.38,14.09,5.38,19.46,0l39.81-39.81,39.81,39.81c2.69,2.69,6.21,4.03,9.73,4.03s7.04-1.34,9.73-4.03c5.38-5.38,5.38-14.09,0-19.46l-49.54-49.55c-5.38-5.38-14.09-5.38-19.46,0l-39.81,39.81Z"/><path d="M1639.94,860.32c-5.38-5.38-14.09-5.38-19.46,0l-39.81,39.81-39.81-39.81c-5.38-5.38-14.09-5.38-19.46,0-5.38,5.38-5.38,14.09,0,19.46l39.81,39.81-39.81,39.81c-5.38,5.38-5.38,14.09,0,19.46,2.69,2.69,6.21,4.03,9.73,4.03s7.04-1.34,9.73-4.03l39.81-39.81,39.81,39.81c2.69,2.69,6.21,4.03,9.73,4.03s7.04-1.34,9.73-4.03c5.38-5.38,5.38-14.09,0-19.46l-39.81-39.81,39.81-39.81c5.38-5.38,5.38-14.09,0-19.46Z"/><path class="cls-1" d="M1491.31,929.33c5.38-5.38,5.38-14.09,0-19.46-5.38-5.38-14.09-5.38-19.46,0l-39.81,39.81-30.08-30.08,138.9-138.9c5.38-5.38,5.38-14.09,0-19.46l-49.54-49.55c-5.38-5.38-14.09-5.38-19.46,0l-148.64,148.64c-5.38,5.38-5.38,14.09,0,19.46,5.38,5.38,14.09,5.38,19.46,0l138.9-138.9,30.08,30.08-138.9,138.9c-5.38,5.38-5.38,14.09,0,19.46l39.81,39.81-39.81,39.81c-5.38,5.38-5.38,14.09,0,19.46,2.69,2.69,6.21,4.03,9.73,4.03s7.04-1.34,9.73-4.03l49.54-49.55,49.54-49.54Z"/><path d="M1729.3,289.28c3.52,0,7.04-1.34,9.73-4.03l49.54-49.54c5.38-5.38,5.38-14.09,0-19.46-5.38-5.38-14.09-5.38-19.46,0l-49.55,49.55c-5.38,5.38-5.38,14.09,0,19.46,2.69,2.69,6.21,4.03,9.73,4.03Z"/><path class="cls-1" d="M1937.21,166.69l-49.54-49.55c-5.38-5.38-14.09-5.38-19.46,0l-49.55,49.55c-5.38,5.38-5.38,14.09,0,19.46,5.38,5.38,14.09,5.38,19.46,0l39.81-39.81,30.08,30.08-89.36,89.36c-5.38,5.38-5.38,14.09,0,19.46,2.69,2.69,6.21,4.03,9.73,4.03s7.04-1.34,9.73-4.03l99.09-99.09c5.38-5.38,5.38-14.09,0-19.46Z"/><path d="M1887.67,315.33c-5.38-5.38-14.09-5.38-19.46,0l-89.36,89.36-30.08-30.08,39.81-39.81c5.38-5.38,5.38-14.09,0-19.46-5.38-5.38-14.09-5.38-19.46,0l-49.55,49.54c-5.38,5.38-5.38,14.09,0,19.46l49.55,49.55c2.69,2.69,6.21,4.03,9.73,4.03s7.04-1.34,9.73-4.03l99.09-99.09c5.38-5.38,5.38-14.09,0-19.46Z"/><path d="M1788.58,513.51c-5.38-5.38-14.09-5.38-19.46,0l-39.81,39.81-39.81-39.81c-5.38-5.38-14.09-5.38-19.46,0-5.38,5.38-5.38,14.09,0,19.46l39.81,39.81-39.81,39.81c-5.38,5.38-5.38,14.09,0,19.46,2.69,2.69,6.21,4.03,9.73,4.03s7.04-1.34,9.73-4.03l39.81-39.81,39.81,39.81c2.69,2.69,6.21,4.03,9.73,4.03s7.04-1.34,9.73-4.03c5.38-5.38,5.38-14.09,0-19.46l-39.81-39.81,39.81-39.81c5.38-5.38,5.38-14.09,0-19.46Z"/><path d="M1937.21,364.87c-5.38-5.38-14.09-5.38-19.46,0l-99.09,99.09c-5.38,5.38-5.38,14.09,0,19.46,2.69,2.69,6.21,4.03,9.73,4.03s7.04-1.34,9.73-4.03l99.09-99.09c5.38-5.38,5.38-14.09,0-19.46Z"/><path d="M1937.21,563.05l-49.54-49.55c-5.38-5.38-14.09-5.38-19.46,0l-49.55,49.55c-5.38,5.38-5.38,14.09,0,19.46,5.38,5.38,14.09,5.38,19.46,0l39.81-39.81,30.08,30.08-89.36,89.36c-5.38,5.38-5.38,14.09,0,19.46,2.69,2.69,6.21,4.03,9.73,4.03s7.04-1.34,9.73-4.03l99.09-99.09c5.38-5.38,5.38-14.09,0-19.46Z"/><path d="M1620.48,662.14c-5.38,5.38-5.38,14.09,0,19.46l49.55,49.55c2.69,2.69,6.21,4.03,9.73,4.03s7.04-1.34,9.73-4.03l49.54-49.55c5.38-5.38,5.38-14.09,0-19.46-5.38-5.38-14.09-5.38-19.46,0l-39.81,39.81-39.81-39.81c-5.38-5.38-14.09-5.38-19.46,0Z"/><path d="M1788.58,711.69c-5.38-5.38-14.09-5.38-19.46,0l-89.36,89.36-39.81-39.81c-5.38-5.38-14.09-5.38-19.46,0l-49.55,49.54c-5.38,5.38-5.38,14.09,0,19.46,5.38,5.38,14.09,5.38,19.46,0l39.81-39.81,39.81,39.81c2.69,2.69,6.21,4.03,9.73,4.03s7.04-1.34,9.73-4.03l99.09-99.09c5.38-5.38,5.38-14.09,0-19.46Z"/><path class="cls-1" d="M1937.21,662.14c-5.38-5.38-14.09-5.38-19.46,0l-99.09,99.09c-5.38,5.38-5.38,14.09,0,19.46l39.81,39.81-39.81,39.81c-5.38,5.38-5.38,14.09,0,19.46l49.55,49.55c2.69,2.69,6.21,4.03,9.73,4.03s7.04-1.34,9.73-4.03l49.54-49.55c5.38-5.38,5.38-14.09,0-19.46-5.38-5.38-14.09-5.38-19.46,0l-39.81,39.81-30.08-30.08,39.81-39.81c5.38-5.38,5.38-14.09,0-19.46l-39.81-39.81,89.36-89.36c5.38-5.38,5.38-14.09,0-19.46Z"/><path d="M1769.12,810.78l-99.09,99.09c-5.38,5.38-5.38,14.09,0,19.46,2.69,2.69,6.21,4.03,9.73,4.03s7.04-1.34,9.73-4.03l99.09-99.09c5.38-5.38,5.38-14.09,0-19.46-5.38-5.38-14.09-5.38-19.46,0Z"/><path d="M1769.12,1028.42c5.38,5.38,14.09,5.38,19.46,0l49.54-49.55c5.38-5.38,5.38-14.09,0-19.46l-49.54-49.55c-5.38-5.38-14.09-5.38-19.46,0-5.38,5.38-5.38,14.09,0,19.46l39.81,39.81-30.08,30.08-39.81-39.81c-5.38-5.38-14.09-5.38-19.46,0l-99.09,99.09c-5.38,5.38-5.38,14.09,0,19.46,2.69,2.69,6.21,4.03,9.73,4.03s7.04-1.34,9.73-4.03l89.36-89.36,39.81,39.81Z"/><path d="M1348.19,1077.98c-2.7,2.7-6.22,4.02-9.74,4.02s-7.05-1.32-9.74-4.02l-39.47-39.47-43.05,46.24h-37.6l70.24-75.42c.28-.22,.28-.33,.33-.39,.28-.28,.61-.44,.88-.72,.39-.28,.72-.61,1.1-.88s.77-.44,1.16-.66,.77-.44,1.21-.66c.39-.17,.83-.28,1.27-.39,.44-.17,.83-.28,1.27-.39s.83-.11,1.27-.17,.88-.11,1.38-.17c.39,0,.83,.06,1.21,.11,.5,0,.94,.06,1.43,.11,.39,.06,.77,.22,1.16,.33,.5,.11,.94,.22,1.38,.39,.39,.17,.77,.39,1.16,.55,.44,.22,.83,.39,1.27,.66,.33,.28,.72,.55,1.05,.83,.33,.22,.66,.44,.94,.72,.22,.28,.33,.28,.39,.33l49.54,49.54c5.34,5.39,5.34,14.09,0,19.49Z"/><path d="M1392.22,731.15l99.09-99.09c5.38-5.38,5.38-14.09,0-19.46-5.38-5.38-14.09-5.38-19.46,0l-89.36,89.36-39.81-39.81c-5.38-5.38-14.09-5.38-19.46,0l-89.36,89.36-39.81-39.81c-5.38-5.38-14.09-5.38-19.46,0l-89.36,89.36-39.81-39.81c-5.37-5.38-14.09-5.38-19.46,0-5.38,5.38-5.38,14.09,0,19.46l49.54,49.55c2.69,2.69,6.21,4.03,9.73,4.03s7.05-1.34,9.73-4.03l89.36-89.36,39.81,39.81c5.38,5.38,14.09,5.38,19.46,0l89.36-89.36,39.81,39.81c5.38,5.38,14.09,5.38,19.46,0Z"/><path d="M1570.94,731.15c2.69,2.69,6.21,4.03,9.73,4.03s7.04-1.34,9.73-4.03c5.38-5.38,5.38-14.09,0-19.46l-39.81-39.81,89.36-89.36c5.38-5.38,5.38-14.09,0-19.46l-39.81-39.81,79.63-79.63,39.81,39.81c5.38,5.38,14.09,5.38,19.46,0,5.38-5.38,5.38-14.09,0-19.46l-49.54-49.55c-5.38-5.38-14.09-5.38-19.46,0l-99.09,99.09c-5.38,5.38-5.38,14.09,0,19.46l39.81,39.81-89.36,89.36c-5.38,5.38-5.38,14.09,0,19.46l49.55,49.55Z"/></g><g><path d="M153.75-16.25L50.42,87.08c-2.7,2.7-6.22,4.02-9.74,4.02s-7.05-1.32-9.74-4.02L-8.87,47.28l-39.8,39.8c-5.39,5.34-14.09,5.34-19.49,0-5.34-5.39-5.34-14.09,0-19.49L-18.62,18.05c5.39-5.34,14.09-5.34,19.49,0L40.67,57.85,114.77-16.25h38.98Z"/><path d="M-18.6,235.7c2.69,2.69,6.21,4.03,9.73,4.03s7.05-1.34,9.73-4.03l39.81-39.81,39.81,39.81c2.69,2.69,6.21,4.03,9.73,4.03s7.05-1.34,9.73-4.03c5.38-5.38,5.38-14.09,0-19.46l-39.81-39.81,39.81-39.81c5.38-5.38,5.38-14.09,0-19.46-5.37-5.38-14.09-5.38-19.46,0l-39.81,39.81L.86,117.15c-5.37-5.38-14.09-5.38-19.46,0-5.38,5.38-5.38,14.09,0,19.46l39.81,39.81-39.81,39.81c-5.38,5.38-5.38,14.09,0,19.46Z"/><path d="M-18.6,334.79c2.69,2.69,6.21,4.03,9.73,4.03s7.05-1.34,9.73-4.03l49.54-49.55c5.38-5.38,5.38-14.09,0-19.46-5.37-5.38-14.09-5.38-19.46,0l-49.55,49.55c-5.38,5.38-5.38,14.09,0,19.46Z"/><path d="M199.05,117.14c5.34,5.39,5.34,14.09,0,19.49l-49.54,49.55c-2.7,2.7-6.22,4.02-9.74,4.02s-7.05-1.32-9.74-4.02c-5.34-5.39-5.34-14.09,0-19.49l39.8-39.8-39.8-39.8c-5.34-5.39-5.34-14.09,0-19.49L213.86-16.25h38.98l-93.58,93.59,39.8,39.8Z"/><path d="M248.58,87.07l49.54-49.54c5.38-5.38,5.38-14.09,0-19.46-5.38-5.38-14.09-5.38-19.46,0l-49.55,49.55c-5.38,5.38-5.38,14.09,0,19.46,2.69,2.69,6.21,4.03,9.73,4.03s7.04-1.34,9.73-4.03Z"/><path d="M377.76,235.7c2.69,2.69,6.21,4.03,9.73,4.03s7.04-1.34,9.73-4.03l39.81-39.81,39.81,39.81c2.69,2.69,6.21,4.03,9.73,4.03s7.04-1.34,9.73-4.03c5.38-5.38,5.38-14.09,0-19.46l-39.81-39.81,39.81-39.81c5.38-5.38,5.38-14.09,0-19.46-5.38-5.38-14.09-5.38-19.46,0l-39.81,39.81-39.81-39.81c-5.38-5.38-14.09-5.38-19.46,0-5.38,5.38-5.38,14.09,0,19.46l39.81,39.81-39.81,39.81c-5.38,5.38-5.38,14.09,0,19.46Z"/><path d="M-18.6,731.15c2.69,2.69,6.21,4.03,9.73,4.03s7.05-1.34,9.73-4.03l39.81-39.81,39.81,39.81c2.69,2.69,6.21,4.03,9.73,4.03s7.05-1.34,9.73-4.03c5.38-5.38,5.38-14.09,0-19.46l-39.81-39.81,39.81-39.81c5.38-5.38,5.38-14.09,0-19.46-5.37-5.38-14.09-5.38-19.46,0l-39.81,39.81L.86,612.6c-5.37-5.38-14.09-5.38-19.46,0-5.38,5.38-5.38,14.09,0,19.46l39.81,39.81-39.81,39.81c-5.38,5.38-5.38,14.09,0,19.46Z"/><path d="M-117.69,532.97c2.69,2.69,6.21,4.03,9.73,4.03s7.05-1.34,9.73-4.03L-8.87,443.61l39.81,39.81c2.69,2.69,6.21,4.03,9.73,4.03s7.05-1.34,9.73-4.03c5.38-5.38,5.38-14.09,0-19.46l-39.81-39.81,89.36-89.36c5.38-5.38,5.38-14.09,0-19.46-5.37-5.38-14.09-5.38-19.46,0l-198.18,198.18c-5.38,5.38-5.38,14.09,0,19.46Z"/><path d="M-117.69,632.06c2.69,2.69,6.21,4.03,9.73,4.03s7.05-1.34,9.73-4.03L-8.87,542.7l39.81,39.81c5.37,5.38,14.09,5.38,19.46,0l99.09-99.09c5.38-5.38,5.38-14.09,0-19.46l-39.81-39.81,39.81-39.81c5.38-5.38,5.38-14.09,0-19.46-5.37-5.38-14.09-5.38-19.46,0l-49.55,49.55c-5.38,5.38-5.38,14.09,0,19.46l39.81,39.81-79.63,79.63L.86,513.51c-5.37-5.38-14.09-5.38-19.46,0l-99.09,99.09c-5.38,5.38-5.38,14.09,0,19.46Z"/><path d="M130.03,265.78c-5.38,5.38-5.38,14.09,0,19.46l49.55,49.55c2.69,2.69,6.21,4.03,9.73,4.03s7.04-1.34,9.73-4.03c5.38-5.38,5.38-14.09,0-19.46l-49.54-49.55c-5.37-5.38-14.09-5.38-19.46,0Z"/><path class="cls-1" d="M179.58,235.7c5.38,5.38,14.09,5.38,19.46,0l89.36-89.36,30.08,30.08-89.36,89.36c-5.38,5.38-5.38,14.09,0,19.46,2.69,2.69,6.21,4.03,9.73,4.03s7.04-1.34,9.73-4.03l99.09-99.09c5.38-5.38,5.38-14.09,0-19.46l-49.54-49.55c-5.38-5.38-14.09-5.38-19.46,0l-99.09,99.09c-5.38,5.38-5.38,14.09,0,19.46Z"/><path d="M347.67,87.07l39.81-39.81,39.81,39.81c2.69,2.69,6.21,4.03,9.73,4.03s7.04-1.34,9.73-4.03c5.38-5.38,5.38-14.09,0-19.46l-49.54-49.55c-5.38-5.38-14.09-5.38-19.46,0l-49.55,49.55c-5.38,5.38-5.38,14.09,0,19.46,5.38,5.38,14.09,5.38,19.46,0Z"/><path d="M550.11-16.25l-53.78,53.78c-2.7,2.7-6.22,4.02-9.74,4.02s-7.05-1.32-9.74-4.02c-5.34-5.39-5.34-14.09,0-19.49l34.3-34.3h38.98Z"/><path d="M536.12,91.1c3.52,0,7.04-1.34,9.73-4.03l49.54-49.54c5.38-5.38,5.38-14.09,0-19.46-5.38-5.38-14.09-5.38-19.46,0l-49.55,49.55c-5.38,5.38-5.38,14.09,0,19.46,2.69,2.69,6.21,4.03,9.73,4.03Z"/><path d="M248.58,364.87c-5.38-5.38-14.09-5.38-19.46,0l-49.55,49.55c-5.38,5.38-5.38,14.09,0,19.46,5.38,5.38,14.09,5.38,19.46,0l39.81-39.81,39.81,39.81c2.69,2.69,6.21,4.03,9.73,4.03s7.04-1.34,9.73-4.03l148.63-148.64c5.38-5.38,5.38-14.09,0-19.46-5.38-5.38-14.09-5.38-19.46,0l-138.9,138.9-39.81-39.81Z"/><path d="M130.03,681.61c2.69,2.69,6.21,4.03,9.73,4.03s7.05-1.34,9.73-4.03l148.63-148.63c5.38-5.38,5.38-14.09,0-19.46l-49.54-49.55c-5.38-5.38-14.09-5.38-19.46,0l-99.09,99.09c-5.38,5.38-5.38,14.09,0,19.46,5.37,5.38,14.09,5.38,19.46,0l89.36-89.36,30.08,30.08-138.9,138.9c-5.38,5.38-5.38,14.09,0,19.46Z"/><path d="M397.22,414.42c-5.38-5.38-14.09-5.38-19.46,0l-49.55,49.55c-5.38,5.38-5.38,14.09,0,19.46l49.55,49.54c2.69,2.69,6.21,4.03,9.73,4.03s7.04-1.34,9.73-4.03c5.38-5.38,5.38-14.09,0-19.46l-39.81-39.81,39.81-39.81c5.38-5.38,5.38-14.09,0-19.46Z"/><path d="M526.39,186.16l39.81,39.81-138.9,138.9c-5.38,5.38-5.38,14.09,0,19.46,2.69,2.69,6.21,4.03,9.73,4.03s7.04-1.34,9.73-4.03l89.36-89.36,39.81,39.81c2.69,2.69,6.21,4.03,9.73,4.03s7.04-1.34,9.73-4.03c5.38-5.38,5.38-14.09,0-19.46l-39.81-39.81,39.81-39.81c5.38-5.38,5.38-14.09,0-19.46l-39.81-39.81,89.36-89.36c5.38-5.38,5.38-14.09,0-19.46-5.38-5.38-14.09-5.38-19.46,0l-99.09,99.09c-5.38,5.38-5.38,14.09,0,19.46Z"/><path d="M298.13,334.79l49.54-49.55c5.38-5.38,5.38-14.09,0-19.46-5.38-5.38-14.09-5.38-19.46,0l-49.54,49.55c-5.38,5.38-5.38,14.09,0,19.46,2.69,2.69,6.21,4.03,9.73,4.03s7.04-1.34,9.73-4.03Z"/><path d="M238.85,685.64c3.52,0,7.04-1.34,9.73-4.03l89.36-89.36,39.81,39.81c5.38,5.38,14.09,5.38,19.46,0,5.38-5.38,5.38-14.09,0-19.46l-49.54-49.55c-5.38-5.38-14.09-5.38-19.46,0l-99.09,99.09c-5.38,5.38-5.38,14.09,0,19.46,2.69,2.69,6.21,4.03,9.73,4.03Z"/><path d="M536.12,586.55c3.52,0,7.04-1.34,9.73-4.03,5.38-5.38,5.38-14.09,0-19.46l-39.81-39.81,39.81-39.81c5.38-5.38,5.38-14.09,0-19.46-5.38-5.38-14.09-5.38-19.46,0l-39.81,39.81-39.81-39.81c-5.38-5.38-14.09-5.38-19.46,0-5.38,5.38-5.38,14.09,0,19.46l39.81,39.81-39.81,39.81c-5.38,5.38-5.38,14.09,0,19.46,2.69,2.69,6.21,4.03,9.73,4.03s7.04-1.34,9.73-4.03l39.81-39.81,39.81,39.81c2.69,2.69,6.21,4.03,9.73,4.03Z"/><path class="cls-1" d="M545.85,364.87c-5.38-5.38-14.09-5.38-19.46,0l-49.54,49.55c-5.38,5.38-5.38,14.09,0,19.46,5.38,5.38,14.09,5.38,19.46,0l39.81-39.81,39.81,39.81c2.69,2.69,6.21,4.03,9.73,4.03s7.04-1.34,9.73-4.03l99.09-99.09c5.38-5.38,5.38-14.09,0-19.46l-49.54-49.55c-5.38-5.38-14.09-5.38-19.46,0-5.38,5.38-5.38,14.09,0,19.46l39.81,39.81-79.63,79.63-39.81-39.81Z"/><path d="M694.49,136.61l39.81-39.81,30.08,30.08-79.63,79.63-39.81-39.81c-5.38-5.38-14.09-5.38-19.46,0-5.38,5.38-5.38,14.09,0,19.46l49.55,49.55c2.69,2.69,6.21,4.03,9.73,4.03s7.04-1.34,9.73-4.03l99.09-99.09c5.38-5.38,5.38-14.09,0-19.46l-49.54-49.55c-5.38-5.38-14.09-5.38-19.46,0l-49.54,49.55c-5.38,5.38-5.38,14.09,0,19.46,5.38,5.38,14.09,5.38,19.46,0Z"/><path class="cls-1" d="M847.38-16.25l-53.78,53.78c-2.7,2.7-6.22,4.02-9.74,4.02s-7.05-1.32-9.74-4.02L734.3-2.27l-39.8,39.8c-5.39,5.34-14.09,5.34-19.49,0-5.34-5.39-5.34-14.09,0-19.49l34.3-34.3h49.99l24.55,24.55,24.55-24.55h38.98Z"/><path d="M.87,1039.44l-45.31,45.31h-38.98l64.79-64.79c5.39-5.34,14.09-5.34,19.49,0,5.34,5.39,5.34,14.09,0,19.49Z"/><path d="M199.05,1039.44l-45.31,45.31h-38.98l64.79-64.79c5.39-5.34,14.09-5.34,19.49,0,5.34,5.39,5.34,14.09,0,19.49Z"/><path d="M595.41,1039.44l-45.31,45.31h-38.98l11.01-11.01-35.56-35.56-39.8,39.8c-5.39,5.34-14.09,5.34-19.49,0-5.34-5.39-5.34-14.09,0-19.49l49.54-49.54c5.39-5.34,14.09-5.34,19.49,0l45.31,45.31,34.3-34.3c5.39-5.34,14.09-5.34,19.49,0,5.34,5.39,5.34,14.09,0,19.49Z"/><path d="M744.05,1069.5l15.25,15.25h-49.99l15.25-15.25c5.39-5.34,14.09-5.34,19.49,0Z"/><path d="M892.68,1039.44l-45.31,45.31h-38.98l64.79-64.79c5.39-5.34,14.09-5.34,19.49,0,5.34,5.39,5.34,14.09,0,19.49Z"/><path d="M-68.15,761.23l-49.55,49.54c-5.38,5.38-5.38,14.09,0,19.46,5.37,5.38,14.09,5.38,19.46,0l39.81-39.81,79.63,79.63-89.36,89.36c-5.38,5.38-5.38,14.09,0,19.46,2.69,2.69,6.21,4.03,9.73,4.03s7.05-1.34,9.73-4.03l99.09-99.09c5.38-5.38,5.38-14.09,0-19.46l-99.09-99.09c-5.37-5.38-14.09-5.38-19.46,0Z"/><path d="M945.09-16.25c-.66,1.54-1.6,2.97-2.86,4.24l-99.09,99.09c-2.7,2.7-6.22,4.02-9.74,4.02s-7.05-1.32-9.74-4.02c-5.34-5.39-5.34-14.09,0-19.49l83.84-83.84h37.6Z"/><path class="cls-1" d="M347.67,761.23c-5.38-5.38-14.09-5.38-19.46,0l-89.36,89.36-39.81-39.81c-5.38-5.38-14.09-5.38-19.46,0l-99.09,99.09c-5.38,5.38-5.38,14.09,0,19.46l39.81,39.81-30.08,30.08-39.81-39.81c-5.37-5.38-14.09-5.38-19.46,0-5.38,5.38-5.38,14.09,0,19.46l49.54,49.55c2.69,2.69,6.21,4.03,9.73,4.03s7.05-1.34,9.73-4.03l49.54-49.55c5.38-5.38,5.38-14.09,0-19.46l-39.81-39.81,79.63-79.63,39.81,39.81c5.38,5.38,14.09,5.38,19.46,0l99.09-99.09c5.38-5.38,5.38-14.09,0-19.46Z"/><path d="M238.85,949.68l-39.81-39.81c-5.38-5.38-14.09-5.38-19.46,0-5.38,5.38-5.38,14.09,0,19.46l49.55,49.54c5.38,5.38,14.09,5.38,19.46,0l39.81-39.81,39.81,39.81c2.69,2.69,6.21,4.03,9.73,4.03s7.04-1.34,9.73-4.03c5.38-5.38,5.38-14.09,0-19.46l-49.54-49.55c-5.38-5.38-14.09-5.38-19.46,0l-39.81,39.81Z"/><path d="M644.94,860.32c-5.38-5.38-14.09-5.38-19.46,0l-39.81,39.81-39.81-39.81c-5.38-5.38-14.09-5.38-19.46,0-5.38,5.38-5.38,14.09,0,19.46l39.81,39.81-39.81,39.81c-5.38,5.38-5.38,14.09,0,19.46,2.69,2.69,6.21,4.03,9.73,4.03s7.04-1.34,9.73-4.03l39.81-39.81,39.81,39.81c2.69,2.69,6.21,4.03,9.73,4.03s7.04-1.34,9.73-4.03c5.38-5.38,5.38-14.09,0-19.46l-39.81-39.81,39.81-39.81c5.38-5.38,5.38-14.09,0-19.46Z"/><path class="cls-1" d="M496.31,929.33c5.38-5.38,5.38-14.09,0-19.46-5.38-5.38-14.09-5.38-19.46,0l-39.81,39.81-30.08-30.08,138.9-138.9c5.38-5.38,5.38-14.09,0-19.46l-49.54-49.55c-5.38-5.38-14.09-5.38-19.46,0l-148.64,148.64c-5.38,5.38-5.38,14.09,0,19.46,5.38,5.38,14.09,5.38,19.46,0l138.9-138.9,30.08,30.08-138.9,138.9c-5.38,5.38-5.38,14.09,0,19.46l39.81,39.81-39.81,39.81c-5.38,5.38-5.38,14.09,0,19.46,2.69,2.69,6.21,4.03,9.73,4.03s7.04-1.34,9.73-4.03l49.54-49.55,49.54-49.54Z"/><path d="M734.3,289.28c3.52,0,7.04-1.34,9.73-4.03l49.54-49.54c5.38-5.38,5.38-14.09,0-19.46-5.38-5.38-14.09-5.38-19.46,0l-49.55,49.55c-5.38,5.38-5.38,14.09,0,19.46,2.69,2.69,6.21,4.03,9.73,4.03Z"/><path d="M942.21,166.69l-49.54-49.55c-5.38-5.38-14.09-5.38-19.46,0l-49.55,49.55c-5.38,5.38-5.38,14.09,0,19.46,5.38,5.38,14.09,5.38,19.46,0l39.81-39.81,30.08,30.08-89.36,89.36c-5.38,5.38-5.38,14.09,0,19.46,2.69,2.69,6.21,4.03,9.73,4.03s7.04-1.34,9.73-4.03l99.09-99.09c5.38-5.38,5.38-14.09,0-19.46Z"/><path d="M892.67,315.33c-5.38-5.38-14.09-5.38-19.46,0l-89.36,89.36-30.08-30.08,39.81-39.81c5.38-5.38,5.38-14.09,0-19.46-5.38-5.38-14.09-5.38-19.46,0l-49.55,49.54c-5.38,5.38-5.38,14.09,0,19.46l49.55,49.55c2.69,2.69,6.21,4.03,9.73,4.03s7.04-1.34,9.73-4.03l99.09-99.09c5.38-5.38,5.38-14.09,0-19.46Z"/><path d="M793.58,513.51c-5.38-5.38-14.09-5.38-19.46,0l-39.81,39.81-39.81-39.81c-5.38-5.38-14.09-5.38-19.46,0-5.38,5.38-5.38,14.09,0,19.46l39.81,39.81-39.81,39.81c-5.38,5.38-5.38,14.09,0,19.46,2.69,2.69,6.21,4.03,9.73,4.03s7.04-1.34,9.73-4.03l39.81-39.81,39.81,39.81c2.69,2.69,6.21,4.03,9.73,4.03s7.04-1.34,9.73-4.03c5.38-5.38,5.38-14.09,0-19.46l-39.81-39.81,39.81-39.81c5.38-5.38,5.38-14.09,0-19.46Z"/><path d="M942.21,364.87c-5.38-5.38-14.09-5.38-19.46,0l-99.09,99.09c-5.38,5.38-5.38,14.09,0,19.46,2.69,2.69,6.21,4.03,9.73,4.03s7.04-1.34,9.73-4.03l99.09-99.09c5.38-5.38,5.38-14.09,0-19.46Z"/><path d="M625.48,662.14c-5.38,5.38-5.38,14.09,0,19.46l49.55,49.55c2.69,2.69,6.21,4.03,9.73,4.03s7.04-1.34,9.73-4.03l49.54-49.55c5.38-5.38,5.38-14.09,0-19.46-5.38-5.38-14.09-5.38-19.46,0l-39.81,39.81-39.81-39.81c-5.38-5.38-14.09-5.38-19.46,0Z"/><path d="M793.58,711.69c-5.38-5.38-14.09-5.38-19.46,0l-89.36,89.36-39.81-39.81c-5.38-5.38-14.09-5.38-19.46,0l-49.55,49.54c-5.38,5.38-5.38,14.09,0,19.46,5.38,5.38,14.09,5.38,19.46,0l39.81-39.81,39.81,39.81c2.69,2.69,6.21,4.03,9.73,4.03s7.04-1.34,9.73-4.03l99.09-99.09c5.38-5.38,5.38-14.09,0-19.46Z"/><path d="M774.12,810.78l-99.09,99.09c-5.38,5.38-5.38,14.09,0,19.46,2.69,2.69,6.21,4.03,9.73,4.03s7.04-1.34,9.73-4.03l99.09-99.09c5.38-5.38,5.38-14.09,0-19.46-5.38-5.38-14.09-5.38-19.46,0Z"/><path d="M774.12,1028.42c5.38,5.38,14.09,5.38,19.46,0l49.54-49.55c5.38-5.38,5.38-14.09,0-19.46l-49.54-49.55c-5.38-5.38-14.09-5.38-19.46,0-5.38,5.38-5.38,14.09,0,19.46l39.81,39.81-30.08,30.08-39.81-39.81c-5.38-5.38-14.09-5.38-19.46,0l-99.09,99.09c-5.38,5.38-5.38,14.09,0,19.46,2.69,2.69,6.21,4.03,9.73,4.03s7.04-1.34,9.73-4.03l89.36-89.36,39.81,39.81Z"/><path d="M353.19,1077.98c-2.7,2.7-6.22,4.02-9.74,4.02s-7.05-1.32-9.74-4.02l-39.47-39.47-43.05,46.24h-37.6l70.24-75.42c.28-.22,.28-.33,.33-.39,.28-.28,.61-.44,.88-.72,.39-.28,.72-.61,1.1-.88s.77-.44,1.16-.66,.77-.44,1.21-.66c.39-.17,.83-.28,1.27-.39,.44-.17,.83-.28,1.27-.39s.83-.11,1.27-.17,.88-.11,1.38-.17c.39,0,.83,.06,1.21,.11,.5,0,.94,.06,1.43,.11,.39,.06,.77,.22,1.16,.33,.5,.11,.94,.22,1.38,.39,.39,.17,.77,.39,1.16,.55,.44,.22,.83,.39,1.27,.66,.33,.28,.72,.55,1.05,.83,.33,.22,.66,.44,.94,.72,.22,.28,.33,.28,.39,.33l49.54,49.54c5.34,5.39,5.34,14.09,0,19.49Z"/><path d="M397.22,731.15l99.09-99.09c5.38-5.38,5.38-14.09,0-19.46-5.38-5.38-14.09-5.38-19.46,0l-89.36,89.36-39.81-39.81c-5.38-5.38-14.09-5.38-19.46,0l-89.36,89.36-39.81-39.81c-5.38-5.38-14.09-5.38-19.46,0l-89.36,89.36-39.81-39.81c-5.37-5.38-14.09-5.38-19.46,0-5.38,5.38-5.38,14.09,0,19.46l49.54,49.55c2.69,2.69,6.21,4.03,9.73,4.03s7.05-1.34,9.73-4.03l89.36-89.36,39.81,39.81c5.38,5.38,14.09,5.38,19.46,0l89.36-89.36,39.81,39.81c5.38,5.38,14.09,5.38,19.46,0Z"/><path d="M575.94,731.15c2.69,2.69,6.21,4.03,9.73,4.03s7.04-1.34,9.73-4.03c5.38-5.38,5.38-14.09,0-19.46l-39.81-39.81,89.36-89.36c5.38-5.38,5.38-14.09,0-19.46l-39.81-39.81,79.63-79.63,39.81,39.81c5.38,5.38,14.09,5.38,19.46,0,5.38-5.38,5.38-14.09,0-19.46l-49.54-49.55c-5.38-5.38-14.09-5.38-19.46,0l-99.09,99.09c-5.38,5.38-5.38,14.09,0,19.46l39.81,39.81-89.36,89.36c-5.38,5.38-5.38,14.09,0,19.46l49.55,49.55Z"/></g></g><path d="M817.02,775.7c0-3.52,1.34-7.04,4.03-9.73l44.86-44.86-39.81-39.81c-5.38-5.38-5.38-14.09,0-19.46,5.38-5.38,14.09-5.38,19.46,0l49.54,49.55c5.38,5.38,5.38,14.09,0,19.46l-54.59,54.59c-5.38,5.38-14.09,5.38-19.46,0-2.69-2.69-4.03-6.21-4.03-9.73Z"/><path d="M952.1,864.38c5.38,5.38,5.38,14.09,0,19.46l-49.55,49.54c-5.38,5.38-14.09,5.38-19.46,0l-49.54-49.55c-2.69-2.69-4.03-6.21-4.03-9.73s1.34-7.04,4.03-9.73c5.38-5.38,14.09-5.38,19.46,0l39.81,39.81,39.81-39.81c5.38-5.38,14.09-5.38,19.46,0Z"/></g><rect class="cls-2" x="-64" y="-8.25" width="2026" height="1093"/></svg>