<?xml version="1.0" encoding="UTF-8"?><svg id="Layer_1" xmlns="http://www.w3.org/2000/svg" viewBox="0 0 32 32"><defs><style>.cls-1{fill:#fff;}.cls-2{fill:#ffad49;}</style></defs><circle class="cls-1" cx="16" cy="16" r="15.5"/><g><path class="cls-2" d="M10.31,7.89h13.8v-.48c0-1.33-1.08-2.41-2.41-2.41H7.41c-1.33,0-2.41,1.08-2.41,2.41v14.28c0,1.33,1.08,2.41,2.41,2.41h.48V10.31c0-1.33,1.08-2.41,2.41-2.41Z"/><path d="M24.59,7.89h-.48v13.8c0,1.33-1.08,2.41-2.41,2.41H7.89v.48c0,1.33,1.08,2.41,2.41,2.41h14.28c1.33,0,2.41-1.08,2.41-2.41V10.31c0-1.33-1.08-2.41-2.41-2.41Z"/></g></svg>