<?xml version="1.0" encoding="UTF-8"?><svg id="Layer_1" xmlns="http://www.w3.org/2000/svg" viewBox="0 0 32 32"><defs><style>.cls-1{fill:#ffad49;}</style></defs><path class="cls-1" d="M8.24,4.95H27.05v-.66c0-1.82-1.47-3.29-3.29-3.29H4.29c-1.82,0-3.29,1.47-3.29,3.29V23.76c0,1.82,1.47,3.29,3.29,3.29h.66V8.24c0-1.82,1.47-3.29,3.29-3.29Z"/><path d="M27.71,4.95h-.66V23.76c0,1.82-1.47,3.29-3.29,3.29H4.95v.66c0,1.82,1.47,3.29,3.29,3.29H27.71c1.82,0,3.29-1.47,3.29-3.29V8.24c0-1.82-1.47-3.29-3.29-3.29Z"/></svg>