<?xml version="1.0" encoding="UTF-8"?><svg id="Layer_1" xmlns="http://www.w3.org/2000/svg" viewBox="0 0 200 100"><defs><style>.cls-1{fill:#ffad49;}</style></defs><path class="cls-1" d="M30.01,20.46H178.78v-1.76c0-4.86-3.94-8.79-8.79-8.79H19.46c-4.86,0-8.79,3.94-8.79,8.79v52.05c0,4.86,3.94,8.79,8.79,8.79h1.76V29.25c0-4.86,3.94-8.79,8.79-8.79Z"/><path d="M180.54,20.46h-1.76v50.29c0,4.86-3.94,8.79-8.79,8.79H21.22v1.76c0,4.86,3.94,8.79,8.79,8.79H180.54c4.86,0,8.79-3.94,8.79-8.79V29.25c0-4.86-3.94-8.79-8.79-8.79Z"/><g><path d="M34.41,61.23h6.28c.37,0,.55,.18,.55,.55v.95c0,.37-.18,.55-.55,.55h-8c-.37,0-.55-.18-.55-.55v-25.48c0-.37,.18-.55,.55-.55h1.17c.37,0,.55,.18,.55,.55v23.97Z"/><path d="M53.09,41.78v16.45c0,3.34-.81,5.25-5.1,5.25s-5.1-1.91-5.1-5.25v-16.45c0-3.3,.81-5.25,5.1-5.25s5.1,1.95,5.1,5.25Zm-7.93,0v16.45c0,2.02,.44,3.19,2.83,3.19s2.83-1.18,2.83-3.19v-16.45c0-2.02-.44-3.19-2.83-3.19s-2.83,1.18-2.83,3.19Z"/><path d="M66.24,46.29c0,.37-.18,.55-.55,.55h-1.17c-.37,0-.55-.18-.55-.55v-4.52c0-2.02-.44-3.19-2.83-3.19s-2.83,1.18-2.83,3.19v16.45c0,2.02,.44,3.19,2.83,3.19s2.83-1.18,2.83-3.19v-4.52c0-.37,.18-.55,.55-.55h1.17c.37,0,.55,.18,.55,.55v4.52c0,3.34-.81,5.25-5.1,5.25s-5.1-1.91-5.1-5.25v-16.45c0-3.3,.81-5.25,5.1-5.25s5.1,1.95,5.1,5.25v4.52Z"/><path d="M77.47,62.74l-.84-5.47h-5.36l-.84,5.47c-.04,.29-.18,.55-.55,.55h-1.32c-.33,0-.48-.26-.44-.59l3.93-25.4c.04-.37,.22-.59,.62-.59h2.57c.4,0,.59,.22,.62,.59l3.93,25.4c.04,.37-.15,.59-.44,.59h-1.32c-.33,0-.51-.22-.55-.55Zm-5.91-7.53h4.74l-1.51-9.98-.77-6.24h-.15l-.77,6.24-1.54,9.98Z"/><path d="M83.93,61.23h6.28c.37,0,.55,.18,.55,.55v.95c0,.37-.18,.55-.55,.55h-8c-.37,0-.55-.18-.55-.55v-25.48c0-.37,.18-.55,.55-.55h1.17c.37,0,.55,.18,.55,.55v23.97Z"/><path d="M96.71,47.25l3.67,4.11c1.32,1.47,2.24,2.86,2.24,6.86,0,3.34-.81,5.25-5.1,5.25s-5.1-1.91-5.1-5.25v-3.78c0-.37,.18-.55,.55-.55h1.17c.37,0,.55,.18,.55,.55v3.78c0,2.02,.44,3.19,2.83,3.19s2.83-1.18,2.83-3.19c0-2.5-.26-3.49-2.02-5.47l-3.67-4.11c-1.32-1.43-2.24-2.86-2.24-6.86,0-3.3,.81-5.25,5.1-5.25s5.1,1.95,5.1,5.25v3.78c0,.37-.18,.55-.55,.55h-1.17c-.37,0-.55-.18-.55-.55v-3.78c0-2.02-.44-3.19-2.83-3.19s-2.83,1.18-2.83,3.19c0,2.57,.29,3.52,2.02,5.47Z"/></g><g><path d="M121.75,42.36v15.27c0,4-2.53,5.84-7.27,5.84s-7.27-1.84-7.27-5.84v-15.27c0-4,2.53-5.84,7.27-5.84s7.27,1.84,7.27,5.84Zm-9.1,0v15.27c0,.99,.62,1.73,1.84,1.73s1.84-.73,1.84-1.73v-15.27c0-.99-.62-1.73-1.84-1.73s-1.84,.73-1.84,1.73Z"/><path d="M134.53,38.22c0-.95,.55-1.51,1.51-1.51h2.06c.95,0,1.51,.55,1.51,1.51v23.57c0,.95-.55,1.51-1.51,1.51h-2.46c-.92,0-1.28-.48-1.51-1.1l-2.75-7.93-1.8-6.39-.37,.07,.55,6.57v7.27c0,.95-.55,1.51-1.51,1.51h-2.06c-.95,0-1.51-.55-1.51-1.51v-23.57c0-.95,.55-1.51,1.51-1.51h2.46c.92,0,1.28,.48,1.51,1.1l2.75,7.93,1.8,6.39,.37-.07-.55-6.57v-7.27Z"/><path d="M147.97,59.18h5.32c.95,0,1.51,.55,1.51,1.51v1.1c0,.95-.55,1.51-1.51,1.51h-9.25c-.95,0-1.51-.55-1.51-1.51v-23.57c0-.95,.55-1.51,1.51-1.51h2.42c.95,0,1.51,.55,1.51,1.51v20.96Z"/><path d="M156.15,36.71c.59,0,1.25,.26,1.47,1.03l1.47,5.8,.88,5.25h.37l.88-5.25,1.47-5.8c.22-.77,.88-1.03,1.47-1.03h2.2c1.36,0,1.73,1.1,1.4,2.13l-4.88,15.31v7.63c0,.95-.55,1.51-1.51,1.51h-2.42c-.95,0-1.51-.55-1.51-1.51v-7.63l-4.88-15.31c-.33-1.03,.04-2.13,1.39-2.13h2.2Z"/></g></svg>