<?xml version="1.0" encoding="UTF-8"?><svg id="Layer_1" xmlns="http://www.w3.org/2000/svg" viewBox="0 0 180 30"><defs><style>.cls-1{fill:#fff;}</style></defs><g><g><path class="cls-1" d="M53.02,23.4h4.87c.29,0,.43,.14,.43,.43v.74c0,.29-.14,.43-.43,.43h-6.21c-.28,0-.43-.14-.43-.43V4.79c0-.29,.14-.43,.43-.43h.91c.29,0,.43,.14,.43,.43V23.4Z"/><path class="cls-1" d="M67.52,8.3v12.76c0,2.59-.63,4.07-3.96,4.07s-3.96-1.48-3.96-4.07V8.3c0-2.56,.63-4.07,3.96-4.07s3.96,1.51,3.96,4.07Zm-6.15,0v12.76c0,1.57,.34,2.48,2.19,2.48s2.19-.91,2.19-2.48V8.3c0-1.57-.34-2.48-2.19-2.48s-2.19,.91-2.19,2.48Z"/><path class="cls-1" d="M77.72,11.8c0,.29-.14,.43-.43,.43h-.91c-.29,0-.43-.14-.43-.43v-3.5c0-1.57-.34-2.48-2.19-2.48s-2.19,.91-2.19,2.48v12.76c0,1.57,.34,2.48,2.19,2.48s2.19-.91,2.19-2.48v-3.5c0-.29,.14-.43,.43-.43h.91c.29,0,.43,.14,.43,.43v3.5c0,2.59-.63,4.07-3.96,4.07s-3.96-1.48-3.96-4.07V8.3c0-2.56,.63-4.07,3.96-4.07s3.96,1.51,3.96,4.07v3.5Z"/><path class="cls-1" d="M86.43,24.56l-.66-4.24h-4.16l-.66,4.24c-.03,.23-.14,.43-.43,.43h-1.03c-.26,0-.37-.2-.34-.46l3.05-19.71c.03-.28,.17-.46,.48-.46h1.99c.31,0,.46,.17,.48,.46l3.05,19.71c.03,.29-.11,.46-.34,.46h-1.03c-.26,0-.4-.17-.43-.43Zm-4.59-5.84h3.67l-1.17-7.75-.6-4.84h-.11l-.6,4.84-1.2,7.75Z"/><path class="cls-1" d="M91.45,23.4h4.87c.29,0,.43,.14,.43,.43v.74c0,.29-.14,.43-.43,.43h-6.21c-.28,0-.43-.14-.43-.43V4.79c0-.29,.14-.43,.43-.43h.91c.29,0,.43,.14,.43,.43V23.4Z"/><path class="cls-1" d="M101.36,12.54l2.85,3.19c1.03,1.14,1.74,2.22,1.74,5.33,0,2.59-.63,4.07-3.96,4.07s-3.96-1.48-3.96-4.07v-2.93c0-.29,.14-.43,.43-.43h.91c.29,0,.43,.14,.43,.43v2.93c0,1.57,.34,2.48,2.19,2.48s2.19-.91,2.19-2.48c0-1.94-.2-2.71-1.57-4.24l-2.85-3.19c-1.03-1.11-1.74-2.22-1.74-5.33,0-2.56,.63-4.07,3.96-4.07s3.96,1.51,3.96,4.07v2.93c0,.29-.14,.43-.43,.43h-.91c-.29,0-.43-.14-.43-.43v-2.93c0-1.57-.34-2.48-2.19-2.48s-2.19,.91-2.19,2.48c0,1.99,.23,2.74,1.57,4.25Z"/></g><g><path class="cls-1" d="M120.8,8.75v11.85c0,3.1-1.97,4.53-5.64,4.53s-5.64-1.42-5.64-4.53V8.75c0-3.11,1.97-4.53,5.64-4.53s5.64,1.42,5.64,4.53Zm-7.07,0v11.85c0,.77,.48,1.34,1.42,1.34s1.42-.57,1.42-1.34V8.75c0-.77-.48-1.34-1.42-1.34s-1.42,.57-1.42,1.34Z"/><path class="cls-1" d="M130.71,5.53c0-.74,.43-1.17,1.17-1.17h1.6c.74,0,1.17,.43,1.17,1.17V23.82c0,.74-.43,1.17-1.17,1.17h-1.91c-.71,0-1-.37-1.17-.85l-2.14-6.15-1.4-4.96-.29,.06,.43,5.1v5.64c0,.74-.43,1.17-1.17,1.17h-1.6c-.74,0-1.17-.43-1.17-1.17V5.53c0-.74,.43-1.17,1.17-1.17h1.91c.71,0,1,.37,1.17,.85l2.14,6.15,1.4,4.96,.29-.06-.43-5.1V5.53Z"/><path class="cls-1" d="M141.14,21.8h4.13c.74,0,1.17,.43,1.17,1.17v.85c0,.74-.43,1.17-1.17,1.17h-7.18c-.74,0-1.17-.43-1.17-1.17V5.53c0-.74,.43-1.17,1.17-1.17h1.88c.74,0,1.17,.43,1.17,1.17V21.8Z"/><path class="cls-1" d="M147.49,4.37c.46,0,.97,.2,1.14,.8l1.14,4.5,.68,4.07h.29l.68-4.07,1.14-4.5c.17-.6,.68-.8,1.14-.8h1.71c1.05,0,1.34,.85,1.08,1.65l-3.79,11.88v5.93c0,.74-.43,1.17-1.17,1.17h-1.88c-.74,0-1.17-.43-1.17-1.17v-5.93l-3.79-11.88c-.26-.8,.03-1.65,1.08-1.65h1.71Z"/></g></g><g><path class="cls-1" d="M28.61,7.07h13.51v-.47c0-1.3-1.06-2.36-2.36-2.36h-13.98c-1.3,0-2.36,1.06-2.36,2.36v13.98c0,1.3,1.06,2.36,2.36,2.36h.47V9.43c0-1.3,1.06-2.36,2.36-2.36Z"/><path class="cls-1" d="M42.6,7.07h-.47v13.51c0,1.3-1.06,2.36-2.36,2.36h-13.51v.47c0,1.3,1.06,2.36,2.36,2.36h13.98c1.3,0,2.36-1.06,2.36-2.36V9.43c0-1.3-1.06-2.36-2.36-2.36Z"/></g></svg>