<?xml version="1.0" encoding="UTF-8"?><svg id="Layer_1" xmlns="http://www.w3.org/2000/svg" viewBox="0 0 100 100"><defs><style>.cls-1{fill:#fff;}.cls-2{fill:#ffad49;}</style></defs><path class="cls-1" d="M27.75,18.32c-5.21,0-9.43,4.22-9.43,9.43v53.94h53.94c5.21,0,9.43-4.22,9.43-9.43V18.32H27.75Z"/><g><path class="cls-2" d="M27.75,18.32h53.94v-1.89c0-5.21-4.22-9.43-9.43-9.43H16.43c-5.21,0-9.43,4.22-9.43,9.43v55.82c0,5.21,4.22,9.43,9.43,9.43h1.89V27.75c0-5.21,4.22-9.43,9.43-9.43Z"/><path d="M83.57,18.32h-1.89v53.94c0,5.21-4.22,9.43-9.43,9.43H18.32v1.89c0,5.21,4.22,9.43,9.43,9.43h55.82c5.21,0,9.43-4.22,9.43-9.43V27.75c0-5.21-4.22-9.43-9.43-9.43Z"/></g><g><path d="M29.33,45.82h3.92c.23,0,.34,.12,.34,.34v.6c0,.23-.11,.34-.34,.34h-5c-.23,0-.34-.12-.34-.34v-15.93c0-.23,.11-.34,.34-.34h.73c.23,0,.34,.12,.34,.34v14.99Z"/><path d="M41.01,33.66v10.28c0,2.09-.5,3.28-3.19,3.28s-3.19-1.19-3.19-3.28v-10.28c0-2.07,.5-3.28,3.19-3.28s3.19,1.22,3.19,3.28Zm-4.96,0v10.28c0,1.26,.28,2,1.77,2s1.77-.73,1.77-2v-10.28c0-1.26-.28-2-1.77-2s-1.77,.73-1.77,2Z"/><path d="M49.23,36.48c0,.23-.11,.34-.34,.34h-.73c-.23,0-.34-.12-.34-.34v-2.82c0-1.26-.28-2-1.77-2s-1.77,.73-1.77,2v10.28c0,1.26,.28,2,1.77,2s1.77-.73,1.77-2v-2.82c0-.23,.11-.34,.34-.34h.73c.23,0,.34,.12,.34,.34v2.82c0,2.09-.5,3.28-3.19,3.28s-3.19-1.19-3.19-3.28v-10.28c0-2.07,.5-3.28,3.19-3.28s3.19,1.22,3.19,3.28v2.82Z"/><path d="M56.25,46.76l-.53-3.42h-3.35l-.53,3.42c-.02,.18-.11,.34-.34,.34h-.83c-.21,0-.3-.16-.28-.37l2.46-15.88c.02-.23,.14-.37,.39-.37h1.61c.25,0,.37,.14,.39,.37l2.46,15.88c.02,.23-.09,.37-.28,.37h-.83c-.21,0-.32-.14-.34-.34Zm-3.69-4.71h2.96l-.94-6.24-.48-3.9h-.09l-.48,3.9-.96,6.24Z"/><path d="M60.28,45.82h3.92c.23,0,.34,.12,.34,.34v.6c0,.23-.11,.34-.34,.34h-5c-.23,0-.34-.12-.34-.34v-15.93c0-.23,.11-.34,.34-.34h.73c.23,0,.34,.12,.34,.34v14.99Z"/><path d="M68.27,37.08l2.29,2.57c.83,.92,1.4,1.79,1.4,4.29,0,2.09-.5,3.28-3.19,3.28s-3.19-1.19-3.19-3.28v-2.36c0-.23,.11-.34,.34-.34h.73c.23,0,.34,.12,.34,.34v2.36c0,1.26,.28,2,1.77,2s1.77-.73,1.77-2c0-1.56-.16-2.18-1.26-3.42l-2.29-2.57c-.83-.9-1.4-1.79-1.4-4.29,0-2.07,.5-3.28,3.19-3.28s3.19,1.22,3.19,3.28v2.36c0,.23-.11,.34-.34,.34h-.73c-.23,0-.34-.12-.34-.34v-2.36c0-1.26-.28-2-1.77-2s-1.77,.73-1.77,2c0,1.61,.18,2.2,1.26,3.42Z"/></g><g><path d="M38.87,55.64v10.47c0,2.74-1.74,4-4.98,4s-4.98-1.26-4.98-4v-10.47c0-2.74,1.74-4,4.98-4s4.98,1.26,4.98,4Zm-6.24,0v10.47c0,.68,.43,1.18,1.26,1.18s1.26-.5,1.26-1.18v-10.47c0-.68-.43-1.18-1.26-1.18s-1.26,.5-1.26,1.18Z"/><path d="M47.62,52.8c0-.65,.38-1.03,1.03-1.03h1.41c.65,0,1.03,.38,1.03,1.03v16.15c0,.65-.38,1.03-1.03,1.03h-1.69c-.63,0-.88-.33-1.03-.75l-1.89-5.43-1.23-4.38-.25,.05,.38,4.5v4.98c0,.65-.38,1.03-1.03,1.03h-1.41c-.65,0-1.03-.38-1.03-1.03v-16.15c0-.65,.38-1.03,1.03-1.03h1.69c.63,0,.88,.33,1.03,.75l1.89,5.43,1.23,4.38,.25-.05-.38-4.5v-4.98Z"/><path d="M56.83,67.16h3.65c.65,0,1.03,.38,1.03,1.03v.75c0,.65-.38,1.03-1.03,1.03h-6.34c-.65,0-1.03-.38-1.03-1.03v-16.15c0-.65,.38-1.03,1.03-1.03h1.66c.65,0,1.03,.38,1.03,1.03v14.37Z"/><path d="M62.44,51.76c.4,0,.86,.18,1.01,.7l1.01,3.98,.6,3.6h.25l.6-3.6,1.01-3.98c.15-.53,.6-.7,1.01-.7h1.51c.93,0,1.18,.75,.96,1.46l-3.35,10.49v5.23c0,.65-.38,1.03-1.03,1.03h-1.66c-.65,0-1.03-.38-1.03-1.03v-5.23l-3.35-10.49c-.23-.7,.03-1.46,.96-1.46h1.51Z"/></g></svg>